# xmcd
#
# Track frame offsets:
# 150
# 18664
# 36243
# 50571
# 70849
# 83569
# 96781
# 109861
#
# Disc length: 1657 seconds
#
#
# Revision: 1
# Processed by: cddbd v1.5.2PL0 Copyright (c) Steve Scherf et al.
# Submitted via: FreeRIP 2.941 
#
DISCID=63067708
DTITLE=Blanket Music/Noise for Pretend - Blanket Music/Noise for Pretend - 2001 - Split EP
DYEAR=2001
DGENRE=Jazz
TTITLE0=Blanket Music/Noise for Pretend - Pants With His Halfway Down (Noise for Pretend)
TTITLE1=Blanket Music/Noise for Pretend - Momagranite (Noise for Pretend)
TTITLE2=Blanket Music/Noise for Pretend - Money Penny (Noise for Pretend)
TTITLE3=Blanket Music/Noise for Pretend - Chalk Boy (Noise for Pretend)
TTITLE4=Blanket Music/Noise for Pretend - Hips (Blanket Music)
TTITLE5=Blanket Music/Noise for Pretend - Bunny (Blanket Music)
TTITLE6=Blanket Music/Noise for Pretend - Bicycle Thief (Blanket Music)
TTITLE7=Blanket Music/Noise for Pretend - Song (Blanket Music)
EXTD=YEAR: 2001
EXTT0=
EXTT1=
EXTT2=
EXTT3=
EXTT4=
EXTT5=
EXTT6=
EXTT7=
PLAYORDER=
